<?xml version="1.0" encoding="UTF-8"?>
<svg id="Capa_2" data-name="Capa 2" xmlns="http://www.w3.org/2000/svg" xmlns:xlink="http://www.w3.org/1999/xlink" viewBox="0 0 159.05 161.84">
  <defs>
    <style>
      .cls-1 {
        fill: none;
        stroke: #6e59ff;
        stroke-miterlimit: 10;
        stroke-width: .94px;
      }

      .cls-2 {
        fill: #672df7;
      }

      .cls-2, .cls-3 {
        stroke-width: 0px;
      }

      .cls-4 {
        filter: url(#drop-shadow-1);
      }

      .cls-3 {
        fill: #220050;
      }
    </style>
    <filter id="drop-shadow-1" filterUnits="userSpaceOnUse">
      <feOffset dx="7" dy="7"/>
      <feGaussianBlur result="blur" stdDeviation="5"/>
      <feFlood flood-color="#000" flood-opacity=".3"/>
      <feComposite in2="blur" operator="in"/>
      <feComposite in="SourceGraphic"/>
    </filter>
  </defs>
  <g id="Capa_1-2" data-name="Capa 1">
    <g class="cls-4">
      <path class="cls-3" d="M147.84,161.84H40.74c-6.32,0-12.39-2.51-16.86-6.98l-16.89-16.89c-4.47-4.47-6.98-10.54-6.98-16.86V11.21C0,5.02,5.02,0,11.21,0h99.8c6.32,0,12.39,2.51,16.86,6.99l24.19,24.19c4.47,4.47,6.98,10.54,6.98,16.86v102.58c0,6.19-5.02,11.21-11.21,11.21Z"/>
      <g>
        <path class="cls-1" d="M84.94,71.69c0,1.5-1.21,2.71-2.71,2.71s-2.71-1.21-2.71-2.71,1.21-2.71,2.71-2.71,2.71,1.21,2.71,2.71Z"/>
        <path class="cls-1" d="M94.59,80.9c0,1.5-1.21,2.71-2.71,2.71s-2.71-1.21-2.71-2.71,1.21-2.71,2.71-2.71,2.71,1.21,2.71,2.71Z"/>
        <g>
          <line class="cls-1" x1="145.55" y1="86.94" x2="140.87" y2="91.62"/>
          <line class="cls-1" x1="147.99" y1="89.38" x2="143.31" y2="94.06"/>
          <line class="cls-1" x1="150.43" y1="91.82" x2="145.75" y2="96.5"/>
        </g>
        <path class="cls-1" d="M102.3,71.69c0-3.78,3.06-6.84,6.84-6.84s6.84,3.06,6.84,6.84"/>
        <polyline class="cls-1" points="159.05 96.99 151.17 96.99 125.87 71.69 84.94 71.69"/>
        <line class="cls-1" x1="159.05" y1="80.9" x2="94.59" y2="80.9"/>
      </g>
    </g>
    <path class="cls-2" d="M134.99,101.94c-2.37,10.86-9.54,18.77-20.5,20.39-19.9,2.94-44.38-15.58-52.87-41.64-8.49-26.06,3.44-46.09,24.71-44.84,11.72.69,23.77,7.8,33.06,18.18l-.92-14.19-6.11-6.07-6.29-6.25-10.72,4.01c-2.77-1.74-5.63-3.28-8.54-4.57l-11.59-16.75-7.81-1.31-8.18-1.37-1.86,15.84c-2.79.7-5.4,1.74-7.81,3.09l-20.1-8.74-4.81,6.44-4.99,6.69,13.33,20.33c-.64,3.39-.94,7-.85,10.79l-16.29,9.4,3.61,11.09,3.61,11.09,21.89,7.82c2.36,3.7,4.97,7.19,7.77,10.44l.08,20.88,9.16,6.1,8.82,5.87,13.95-10.14c3.22,1.12,6.42,1.92,9.59,2.37l11.99,15.27,7.08-2,6.76-1.91.52-17.25c2.01-1.49,3.79-3.23,5.38-5.15l13.01,3.03,2.11-6.6,2.05-6.41-8.22-13.89ZM111.3,131.02c-23.78,3.52-53.05-18.62-63.19-49.77-10.14-31.15,4.12-55.09,29.53-53.6,7.6.44,15.33,3.16,22.58,7.53-6.47-3.58-13.28-5.8-20-6.2-24.71-1.45-38.58,21.83-28.72,52.12,9.86,30.29,38.32,51.82,61.45,48.4,6.28-.93,11.49-3.64,15.49-7.66-4.25,4.84-10.02,8.12-17.14,9.17ZM105.74,136.85c-26.03,3.87-58.05-20.51-69.15-54.81-11.1-34.3,4.5-60.66,32.31-59.02,8.32.49,16.77,3.48,24.71,8.3-7.08-3.95-14.53-6.39-21.88-6.82-27.04-1.59-42.22,24.04-31.42,57.39,10.79,33.35,41.93,57.06,67.24,53.29,6.88-1.02,12.57-4.01,16.94-8.43-4.65,5.33-10.96,8.94-18.75,10.1Z"/>
  </g>
</svg>